<?xml version="1.0" standalone="no"?>
<!DOCTYPE svg PUBLIC "-//W3C//DTD SVG 20010904//EN"
 "http://www.w3.org/TR/2001/REC-SVG-20010904/DTD/svg10.dtd">
<svg version="1.0" xmlns="http://www.w3.org/2000/svg"
 width="500.000000pt" height="500.000000pt" viewBox="0 0 500.000000 500.000000"
 preserveAspectRatio="xMidYMid meet">

<g transform="translate(0.000000,500.000000) scale(0.100000,-0.100000)"
fill="#000000" stroke="none">
<path d="M760 2500 l0 -480 1740 0 1740 0 0 480 0 480 -1740 0 -1740 0 0 -480z
m3450 0 l0 -450 -1715 0 -1715 0 0 450 0 450 1715 0 1715 0 0 -450z"/>
<path d="M850 2500 l0 -390 820 0 820 0 0 390 0 390 -820 0 -820 0 0 -390z
m432 124 c21 -19 29 -52 16 -61 -6 -3 -20 6 -30 20 -15 21 -28 27 -58 27 -44
0 -70 -23 -53 -48 5 -10 34 -25 63 -34 29 -10 61 -25 71 -34 25 -22 24 -69 -1
-94 -44 -44 -170 -13 -170 41 0 25 27 25 35 -1 11 -35 98 -41 119 -8 15 24
-15 53 -70 67 -69 18 -97 56 -78 106 16 42 116 54 156 19z m625 0 c77 -49 73
-188 -7 -229 -60 -31 -150 -13 -183 38 -30 46 -26 125 9 166 42 50 125 62 181
25z m-477 -39 l0 -55 70 0 70 0 0 55 c0 48 2 55 20 55 19 0 20 -7 20 -130 0
-123 -1 -130 -20 -130 -18 0 -20 7 -20 60 l0 60 -70 0 -70 0 0 -60 c0 -47 -3
-60 -15 -60 -13 0 -15 21 -15 130 0 109 2 130 15 130 12 0 15 -13 15 -55z
m764 44 c50 -23 58 -112 13 -144 -12 -8 -43 -15 -69 -15 l-48 0 0 -45 c0 -38
-3 -45 -20 -45 -19 0 -20 7 -20 130 l0 130 60 0 c32 0 70 -5 84 -11z"/>
<path d="M1759 2581 c-23 -23 -29 -38 -29 -71 0 -33 6 -48 29 -71 65 -64 171
-20 171 71 0 33 -6 48 -29 71 -23 23 -38 29 -71 29 -33 0 -48 -6 -71 -29z"/>
<path d="M2090 2555 l0 -55 44 0 c49 0 69 16 69 57 0 34 -27 53 -75 53 l-38 0
0 -55z"/>
<path d="M2900 2632 c-30 -14 -35 -23 -38 -55 -4 -49 15 -71 79 -92 48 -16 63
-37 34 -49 -18 -6 -45 2 -45 15 0 5 -18 9 -39 9 -34 0 -38 -3 -34 -19 9 -37
48 -63 95 -63 23 -1 54 2 66 6 42 14 61 98 28 125 -6 5 -34 18 -61 28 -29 11
-50 25 -50 33 0 21 44 25 51 6 7 -18 74 -23 74 -5 0 24 -24 52 -55 65 -45 18
-63 18 -105 -4z"/>
<path d="M3425 2631 c-54 -24 -80 -72 -73 -136 14 -118 162 -161 246 -71 59
65 39 170 -41 207 -52 23 -81 23 -132 0z m106 -69 c25 -21 30 -71 9 -96 -16
-21 -74 -20 -95 0 -25 25 -16 85 15 101 34 17 44 16 71 -5z"/>
<path d="M3090 2605 c0 -34 1 -35 40 -35 l40 0 0 -95 0 -95 40 0 40 0 0 94 0
95 38 3 c34 3 37 6 40 36 l3 32 -120 0 -121 0 0 -35z"/>
<path d="M3680 2510 l0 -130 35 0 c32 0 35 2 35 29 0 28 3 30 47 37 64 9 93
40 93 96 -1 74 -35 98 -139 98 l-71 0 0 -130z m131 54 c18 -21 0 -48 -35 -52
-24 -3 -26 0 -26 32 0 31 3 36 24 36 13 0 29 -7 37 -16z"/>
</g>
</svg>
